<svg width="25" height="25" viewBox="0 0 25 25" fill="none" xmlns="http://www.w3.org/2000/svg">
<path d="M12.5 9.5C10.4289 9.5 8.75 11.1789 8.75 13.25C8.75 15.3211 10.4289 17 12.5 17C14.5711 17 16.25 15.3211 16.25 13.25C16.25 11.1789 14.5711 9.5 12.5 9.5Z" fill="#62C8CA"/>
<path fill-rule="evenodd" clip-rule="evenodd" d="M9.84429 3.57113C10.7236 3.52391 11.609 3.5 12.5 3.5C13.391 3.5 14.2764 3.52391 15.1557 3.57113C16.1233 3.62309 16.9854 4.15612 17.4882 4.96184L18.3094 6.27786C18.5485 6.66099 18.9544 6.92131 19.4195 6.98741C19.8049 7.04218 20.1888 7.10145 20.5713 7.16518C22.0031 7.40378 23 8.65785 23 10.074V18.5C23 20.1569 21.6569 21.5 20 21.5H5C3.34315 21.5 2 20.1569 2 18.5V10.074C2 8.65784 2.99686 7.40377 4.42872 7.16517C4.81116 7.10144 5.1951 7.04217 5.58048 6.9874C6.04556 6.92131 6.45152 6.66099 6.69061 6.27785L7.51181 4.96184C8.0146 4.15612 8.87667 3.62309 9.84429 3.57113ZM7.25 13.25C7.25 10.3505 9.6005 8 12.5 8C15.3995 8 17.75 10.3505 17.75 13.25C17.75 16.1495 15.3995 18.5 12.5 18.5C9.6005 18.5 7.25 16.1495 7.25 13.25ZM19.25 11.75C19.6642 11.75 20 11.4142 20 11C20 10.5858 19.6642 10.25 19.25 10.25C18.8358 10.25 18.5 10.5858 18.5 11C18.5 11.4142 18.8358 11.75 19.25 11.75Z" fill="#62C8CA"/>
</svg>
