<svg width="25" height="25" viewBox="0 0 25 25" fill="none" xmlns="http://www.w3.org/2000/svg">
<path fill-rule="evenodd" clip-rule="evenodd" d="M12.5 2.75C7.11522 2.75 2.75 7.11522 2.75 12.5C2.75 17.8848 7.11522 22.25 12.5 22.25C17.8848 22.25 22.25 17.8848 22.25 12.5C22.25 7.11522 17.8848 2.75 12.5 2.75ZM9.875 8.75C9.33433 8.75 9.04674 9.16881 8.93901 9.38426C8.80886 9.64457 8.75 9.95171 8.75 10.25C8.75 10.5483 8.80886 10.8554 8.93901 11.1157C9.04674 11.3312 9.33433 11.75 9.875 11.75C10.4157 11.75 10.7033 11.3312 10.811 11.1157C10.9411 10.8554 11 10.5483 11 10.25C11 9.95171 10.9411 9.64457 10.811 9.38426C10.7033 9.16881 10.4157 8.75 9.875 8.75ZM14.189 9.38426C14.2967 9.16881 14.5843 8.75 15.125 8.75C15.6657 8.75 15.9533 9.16881 16.061 9.38426C16.1911 9.64457 16.25 9.95171 16.25 10.25C16.25 10.5483 16.1911 10.8554 16.061 11.1157C15.9533 11.3312 15.6657 11.75 15.125 11.75C14.5843 11.75 14.2967 11.3312 14.189 11.1157C14.0589 10.8554 14 10.5483 14 10.25C14 9.95171 14.0589 9.64457 14.189 9.38426ZM16.2123 16.2123C16.5052 15.9194 16.5052 15.4446 16.2123 15.1517C15.9194 14.8588 15.4445 14.8588 15.1517 15.1517C13.6872 16.6161 11.3128 16.6161 9.84835 15.1517C9.55546 14.8588 9.08058 14.8588 8.78769 15.1517C8.4948 15.4446 8.4948 15.9194 8.78769 16.2123C10.8379 18.2626 14.1621 18.2626 16.2123 16.2123Z" fill="#FAB94B"/>
</svg>
