<svg width="24" height="25" viewBox="0 0 24 25" fill="none" xmlns="http://www.w3.org/2000/svg">
<path d="M12.0986 10.6033C12.1221 10.6102 12.1458 10.6171 12.1702 10.6242C12.1947 10.632 12.2191 10.6398 12.2443 10.6478C12.274 10.657 12.274 10.657 12.3044 10.6664C12.5021 10.7289 12.6914 10.8004 12.8682 10.9157C12.9076 10.9364 12.9471 10.9569 12.9866 10.9769C13.0905 11.0319 13.1833 11.094 13.2758 11.1667C13.3235 11.2039 13.3722 11.2386 13.4215 11.2734C13.553 11.3668 13.6733 11.4623 13.7835 11.5827C13.8131 11.6081 13.8131 11.6081 13.8435 11.6341C13.91 11.6922 13.9639 11.7594 14.0195 11.8293C14.0482 11.8649 14.079 11.8986 14.11 11.9319C14.158 11.9834 14.1988 12.0379 14.2413 12.0946C14.265 12.1191 14.265 12.1191 14.2891 12.1443C14.3503 12.2115 14.4017 12.2816 14.4533 12.3575C14.4631 12.3719 14.473 12.3864 14.483 12.4011C14.5821 12.5482 14.6718 12.7016 14.7598 12.8552C14.7806 12.8917 14.8022 12.9277 14.8239 12.9636C14.8355 12.9831 14.8472 13.0027 14.8592 13.0228C14.8741 13.0475 14.8742 13.0475 14.8894 13.0724C14.9115 13.1278 14.9025 13.1501 14.8866 13.2064C14.9052 13.276 14.9052 13.276 14.949 13.3399C14.9627 13.3252 14.9764 13.3105 14.9906 13.2954C14.9964 13.3131 15.0022 13.3308 15.0082 13.349C15.0632 13.5044 15.1108 13.6028 15.2413 13.6963C15.2635 13.7133 15.2635 13.7133 15.2864 13.7308C15.4793 13.8741 15.6901 13.9622 15.9065 14.0535C15.9408 14.0683 15.9749 14.0831 16.0092 14.098C16.0997 14.1367 16.1909 14.173 16.2818 14.2093C16.3702 14.2444 16.4576 14.2796 16.544 14.3219C16.618 14.3584 16.6934 14.3878 16.7708 14.4165C16.9272 14.4755 17.0808 14.542 17.2327 14.6108C17.2816 14.6327 17.3305 14.6544 17.3794 14.6762C17.7206 14.8276 18.068 14.9834 18.3822 15.1881C18.4211 15.2122 18.4603 15.2364 18.4992 15.2605C18.6858 15.3771 18.8654 15.5009 19.0381 15.6389C19.0782 15.6702 19.1186 15.7001 19.1604 15.7288C19.2137 15.7677 19.2137 15.7677 19.2522 15.8091C19.2996 15.8596 19.3497 15.9028 19.4024 15.9473C19.5688 16.092 19.729 16.2478 19.8497 16.4392C19.8801 16.484 19.8801 16.484 19.9275 16.5305C19.9931 16.6026 20.0441 16.6796 20.0963 16.7619C20.1063 16.7779 20.1164 16.7938 20.1269 16.8102C20.4494 17.3222 20.7032 17.9053 20.7531 18.5263C20.76 18.541 20.7669 18.5556 20.7739 18.5708C20.8297 18.9781 20.8106 19.4121 20.7531 19.8172C20.7501 19.8389 20.7471 19.8606 20.744 19.8828C20.7339 19.9543 20.7235 20.0255 20.7128 20.0967C20.7095 20.119 20.7062 20.1412 20.7029 20.1642C20.6818 20.2988 20.6504 20.4223 20.6076 20.5514C20.5982 20.5853 20.5891 20.6191 20.5803 20.6529C20.4671 21.0558 20.2953 21.4208 20.0872 21.7747C20.0727 21.8007 20.0727 21.8007 20.0581 21.8274C20.0442 21.8524 20.0442 21.8524 20.03 21.8775C20.0219 21.892 20.0139 21.9064 20.0056 21.9216C19.9982 21.9318 19.9908 21.9421 19.9832 21.9527H19.9415C19.9373 21.9716 19.933 21.9904 19.9285 22.0097C19.8977 22.0923 19.8605 22.1415 19.8049 22.206C19.7708 22.2452 19.7708 22.2452 19.7334 22.3086H19.6918C19.687 22.3247 19.6823 22.3407 19.6774 22.3574C19.6444 22.4333 19.6025 22.4729 19.5462 22.5312C19.5237 22.555 19.5014 22.5791 19.4789 22.6031L19.2757 22.8205C19.2647 22.8323 19.2538 22.8441 19.2426 22.8562C19.0179 23.0965 18.7557 23.3124 18.4852 23.4883C18.453 23.5112 18.4209 23.5346 18.3891 23.5577C18.2992 23.6222 18.206 23.6779 18.1103 23.7331C18.0795 23.7516 18.0487 23.7703 18.0179 23.7887C17.9185 23.8479 17.8169 23.9018 17.7141 23.9557C17.6731 23.9779 17.6319 24.0002 17.591 24.0227C17.4665 24.0861 17.3392 24.1377 17.2102 24.188C17.1748 24.2018 17.1395 24.2156 17.1041 24.2294C17.0872 24.236 17.0704 24.2425 17.0531 24.2493C17.0163 24.2638 16.9797 24.2789 16.9432 24.294C16.8147 24.3474 16.6852 24.3824 16.55 24.4142C16.5356 24.4176 16.5213 24.421 16.5065 24.4245C16.4938 24.4275 16.4811 24.4304 16.468 24.4334C16.4339 24.4428 16.4002 24.4541 16.3667 24.4661C16.1191 24.5541 15.8653 24.6006 15.6073 24.6402C15.5542 24.6484 15.5013 24.6569 15.4483 24.6653C14.2852 24.8501 13.0763 24.8523 11.9112 24.7568C11.8808 24.7544 11.8502 24.752 11.8198 24.7496C11.4703 24.7215 11.1228 24.6846 10.7753 24.6428C10.7592 24.6408 10.7431 24.6389 10.7264 24.6369C10.6813 24.6315 10.6361 24.626 10.591 24.6203C10.5652 24.6172 10.5394 24.614 10.513 24.6107C10.4553 24.601 10.4553 24.601 10.4345 24.5789C10.405 24.5733 10.3752 24.569 10.3453 24.5652C10.3263 24.5627 10.3074 24.5602 10.2876 24.5577C10.2669 24.555 10.2462 24.5524 10.225 24.5497C10.0419 24.5252 9.8588 24.4971 9.67778 24.4649C9.65593 24.461 9.63429 24.4573 9.61182 24.4533C9.59179 24.4497 9.57167 24.4461 9.55107 24.4424C9.5333 24.4392 9.51549 24.4361 9.49718 24.4328C9.45661 24.4231 9.45661 24.4231 9.4358 24.4009C9.37463 24.3899 9.31366 24.3798 9.25249 24.3702C9.12016 24.3488 8.99033 24.3239 8.86133 24.2868C8.76375 24.2598 8.66533 24.2365 8.56588 24.2129C8.07692 24.0947 8.07692 24.0947 7.8751 24.0223C7.79853 23.9976 7.72175 23.9738 7.64414 23.95C7.62209 23.9431 7.60024 23.9363 7.57756 23.9292C7.47041 23.8959 7.36325 23.8629 7.25506 23.8306C6.98873 23.7503 6.72449 23.6675 6.46857 23.5547C6.41156 23.5306 6.35372 23.5104 6.29546 23.4901C6.11714 23.4278 5.94591 23.3472 5.77529 23.2653C5.74679 23.2517 5.71849 23.2384 5.68978 23.2252C5.31526 23.0519 4.95738 22.8357 4.62864 22.5776C4.61474 22.5667 4.60076 22.5559 4.58661 22.5446C4.54479 22.5115 4.50338 22.4779 4.46219 22.444L4.41079 22.4024C4.31051 22.3194 4.22353 22.235 4.14239 22.1309C4.10951 22.0897 4.07497 22.053 4.03815 22.0158C3.95492 21.9285 3.88813 21.8295 3.81968 21.7287C3.79138 21.6877 3.76246 21.6474 3.73229 21.608C3.66508 21.5157 3.61827 21.4122 3.56771 21.3098C3.5576 21.2896 3.54749 21.2693 3.53712 21.2486C3.40875 20.986 3.30201 20.7077 3.24791 20.414C3.23641 20.351 3.23641 20.351 3.21504 20.2895C3.05545 19.7576 3.0592 19.0098 3.23528 18.4823C3.2414 18.4518 3.24706 18.4211 3.25218 18.3906C3.27402 18.2813 3.31293 18.1831 3.35434 18.0812C3.37743 18.024 3.39824 17.9666 3.41863 17.9083C3.56115 17.5277 3.78483 17.196 4.02618 16.88C4.03977 16.8619 4.03977 16.8619 4.05365 16.8435C4.10046 16.7823 4.14707 16.7266 4.20429 16.6768C4.24486 16.6407 4.28273 16.6053 4.31997 16.5655C4.36512 16.5172 4.41256 16.4765 4.46312 16.4346L4.49724 16.4057C4.68055 16.2532 4.88425 16.1297 5.08815 16.0117C5.11541 15.9956 5.11541 15.9956 5.14308 15.9792C5.26896 15.9051 5.39692 15.835 5.52592 15.7669C5.595 15.73 5.66408 15.693 5.73316 15.6561C5.79828 15.6211 5.86362 15.5864 5.92916 15.5526C6.0411 15.4943 6.14555 15.4328 6.2475 15.3567C6.30139 15.3173 6.35652 15.2806 6.41208 15.2439C6.5055 15.1804 6.58789 15.1119 6.67008 15.0324C6.684 15.0198 6.69796 15.0073 6.71232 14.9941C6.79825 14.9162 6.87128 14.8379 6.94119 14.7426C6.95621 14.7229 6.97115 14.7032 6.98676 14.6828C7.0265 14.6298 7.0265 14.6298 7.06603 14.5646H7.10764C7.11253 14.5502 7.1174 14.5359 7.12244 14.5209C7.15073 14.4495 7.18382 14.3827 7.21836 14.3146C7.32759 14.0992 7.4208 13.8806 7.50549 13.6536C7.52837 13.5931 7.5523 13.5332 7.57602 13.4731C7.60515 13.3985 7.63303 13.3237 7.65966 13.2483C7.73561 13.0331 7.81967 12.8276 7.91975 12.6229C7.9372 12.5873 7.95429 12.5516 7.97135 12.5158C8.09098 12.271 8.25224 12.0595 8.41661 11.8503C8.42926 11.834 8.44199 11.8176 8.45489 11.8009C8.53854 11.6952 8.62925 11.6053 8.72954 11.516C8.74893 11.4983 8.76824 11.4806 8.78821 11.4624C9.04414 11.2309 9.3167 11.0284 9.6288 10.8881C9.67021 10.8698 9.67021 10.8698 9.71993 10.8356C9.83562 10.7626 9.96753 10.7259 10.0945 10.6867C10.1446 10.671 10.1446 10.671 10.1925 10.648C10.2634 10.6195 10.3354 10.6053 10.4088 10.5908C10.5023 10.5802 10.5023 10.5802 10.5805 10.5365C11.084 10.4621 11.6063 10.4519 12.0994 10.6033L12.0986 10.6033Z" fill="#1F1D1D"/>
<path d="M7.85404 0.85466C7.87963 0.859089 7.90502 0.863496 7.93123 0.868058C8.25998 0.929043 8.54503 1.05902 8.83216 1.23307C8.84893 1.24213 8.86566 1.25121 8.88293 1.26045C9.08954 1.37285 9.27201 1.54757 9.44263 1.71227C9.47446 1.74254 9.50754 1.77103 9.54083 1.79929C9.60388 1.85805 9.65569 1.92037 9.70958 1.98848C9.74557 2.03188 9.78323 2.07039 9.82297 2.10956C10.0435 2.34103 10.21 2.64373 10.3723 2.92417C10.3838 2.944 10.3952 2.96379 10.407 2.98426C10.5187 3.18035 10.6234 3.38044 10.7045 3.59188L10.7316 3.65976C10.8731 4.02478 11.0083 4.40983 11.0687 4.80155C11.0837 4.89837 11.0997 4.99408 11.1211 5.08867C11.1467 5.2093 11.1561 5.33127 11.1648 5.45369C11.1665 5.47795 11.1683 5.50243 11.1701 5.52758C11.1921 5.86143 11.1896 6.19084 11.1648 6.52692C11.1632 6.54902 11.1615 6.57121 11.1599 6.59392C11.1495 6.71811 11.1305 6.83207 11.0997 6.95225C11.0896 7.00367 11.0796 7.05508 11.0698 7.10672C11.0452 7.2298 11.0159 7.3471 10.9749 7.46506C10.9676 7.48696 10.9604 7.5089 10.953 7.53138C10.8652 7.78734 10.746 8.01881 10.6014 8.24361C10.5872 8.26743 10.5731 8.29124 10.5585 8.31595C10.5155 8.38138 10.4685 8.43324 10.4141 8.48844C10.3961 8.50771 10.3782 8.52694 10.3596 8.54675L10.3101 8.59972C10.2985 8.61303 10.287 8.62643 10.275 8.64001C10.2477 8.66649 10.2477 8.66649 10.2061 8.66649C10.1992 8.68853 10.1924 8.71056 10.1853 8.73327C9.93352 8.97142 9.60893 9.12054 9.27811 9.16951C9.22755 9.17551 9.22755 9.17551 9.18594 9.20044C8.49307 9.25542 7.88552 9.05533 7.31334 8.64401C7.29959 8.6348 7.28588 8.62559 7.27173 8.61619C7.24322 8.59705 7.21576 8.57635 7.1885 8.55499V8.51047C7.15417 8.49578 7.11984 8.48109 7.08447 8.46596V8.42144C7.0703 8.4173 7.05617 8.41319 7.04161 8.40894C6.96982 8.37132 6.92779 8.32436 6.87328 8.26293C6.82397 8.20929 6.7707 8.16255 6.71598 8.11559C6.70716 8.10633 6.69834 8.09705 6.68914 8.08754V8.04303C6.67112 8.03546 6.67112 8.03546 6.65273 8.02772C6.59281 7.99032 6.56493 7.94648 6.52269 7.88727C6.50063 7.86079 6.47858 7.8343 6.45632 7.80804C6.12133 7.40073 5.8342 6.90218 5.64902 6.39694C5.64142 6.37689 5.63383 6.35688 5.62592 6.33618C5.61217 6.2999 5.59867 6.2634 5.58514 6.2269C5.57174 6.19062 5.55809 6.15434 5.54436 6.11828C5.49838 5.9972 5.45718 5.87568 5.42015 5.75104C5.41349 5.73007 5.40685 5.7092 5.39998 5.68738C5.35109 5.52802 5.31884 5.37133 5.29429 5.20441C5.28823 5.12562 5.28823 5.12562 5.25371 5.0604C5.10495 4.22131 5.14926 3.29096 5.44659 2.50084C5.46045 2.46367 5.47364 2.42628 5.48696 2.38866C5.67005 1.88565 6.00296 1.46499 6.41909 1.16897C6.43391 1.15776 6.44864 1.14649 6.46403 1.13492C6.86144 0.852256 7.39201 0.758776 7.85392 0.856707L7.85404 0.85466Z" fill="#1F1D1D"/>
<path d="M17.0297 1.98981C17.0469 2.0009 17.0642 2.01196 17.0819 2.02342C17.6936 2.4285 18.0536 3.08286 18.2367 3.81511C18.2523 3.8899 18.266 3.96513 18.2795 4.03991C18.2831 4.05907 18.2868 4.07819 18.2905 4.098C18.3398 4.37176 18.345 4.64775 18.3446 4.92819C18.3445 4.95223 18.3445 4.95223 18.3445 4.97671C18.3439 5.35286 18.3221 5.71787 18.2365 6.08511C18.2289 6.11983 18.2214 6.15433 18.2139 6.18905C18.1462 6.49398 18.0705 6.80112 17.9455 7.08601C17.9226 7.13854 17.9034 7.19218 17.8839 7.24627C17.768 7.54451 17.63 7.84943 17.4428 8.10316C17.3876 8.17995 17.341 8.26208 17.2936 8.34354C17.1862 8.51915 17.046 8.67294 16.9128 8.82652C16.9034 8.83763 16.8939 8.84873 16.8841 8.86013C16.7951 8.96384 16.7033 9.06289 16.6053 9.15615C16.5903 9.17037 16.5753 9.18464 16.56 9.19932C16.3207 9.42145 16.0377 9.65559 15.7402 9.78023C15.6994 9.79875 15.6586 9.8174 15.6178 9.83588C15.3036 9.97521 14.9978 10.0515 14.6566 10.0515C14.6135 10.0516 14.5704 10.052 14.5274 10.0524C14.1008 10.0544 13.668 9.9122 13.3268 9.62509V9.58057C13.3101 9.57461 13.2933 9.56864 13.276 9.5625C13.2584 9.55378 13.2409 9.54505 13.2228 9.53601L13.202 9.46924C13.1899 9.46281 13.178 9.45638 13.1656 9.44977C13.0557 9.39101 12.9823 9.27327 12.9096 9.16933C12.9009 9.15715 12.8921 9.14507 12.883 9.13238C12.8033 9.02065 12.729 8.90759 12.6708 8.78072C12.6342 8.70015 12.6342 8.70015 12.5959 8.62047C12.5478 8.52343 12.5158 8.42728 12.4881 8.32222C12.4743 8.27103 12.4586 8.22095 12.4421 8.17088C12.3772 7.96322 12.342 7.75244 12.3204 7.53432C12.3182 7.45976 12.3182 7.45976 12.2861 7.39811C12.2834 7.3438 12.2822 7.29039 12.2818 7.23608C12.2817 7.21939 12.2816 7.20269 12.2814 7.18555C12.281 7.1308 12.2809 7.07605 12.2809 7.02108C12.2808 7.00251 12.2808 6.98391 12.2808 6.96476C12.2807 6.58862 12.2878 6.20357 12.3902 5.84078C12.4009 5.77601 12.4096 5.71125 12.4181 5.64626C12.4359 5.55211 12.4649 5.46397 12.4942 5.37249C12.5042 5.34022 12.5141 5.30772 12.524 5.27545C12.6149 4.97943 12.7137 4.69454 12.8465 4.41855C12.8971 4.31261 12.943 4.20466 12.988 4.09583C13.0304 3.99567 13.0304 3.99567 13.0766 3.97096C13.098 3.9269 13.1189 3.88216 13.139 3.83742C13.1667 3.78601 13.1946 3.73504 13.2235 3.68429C13.2308 3.6711 13.2381 3.65781 13.2456 3.64423C13.2643 3.61129 13.2847 3.57946 13.3053 3.54786H13.3469C13.352 3.53194 13.3572 3.51603 13.3625 3.49956C13.3914 3.42945 13.4268 3.37781 13.4717 3.31839C13.4936 3.28901 13.4936 3.28901 13.5158 3.25874C13.5287 3.24396 13.5416 3.22914 13.555 3.214H13.5966C13.5979 3.2016 13.5992 3.1893 13.6005 3.17639C13.6246 3.10294 13.6687 3.06755 13.7214 3.01369C13.7445 2.9852 13.7676 2.95626 13.7902 2.92733C13.9005 2.79156 14.0274 2.6825 14.1627 2.57567C14.1993 2.54696 14.1993 2.54696 14.2274 2.51424C14.4024 2.33262 14.6477 2.18929 14.8662 2.07577C14.8928 2.06198 14.9192 2.04773 14.9452 2.03304C15.0411 1.9794 15.1387 1.93823 15.2407 1.89994C15.2869 1.88249 15.3324 1.86322 15.3778 1.84341C15.4791 1.80268 15.5817 1.78732 15.6878 1.77286C15.708 1.77005 15.7284 1.76725 15.7492 1.76435C16.1695 1.70916 16.6605 1.73186 17.0267 1.98915L17.0297 1.98981Z" fill="#1F1D1D"/>
<path d="M21.6905 7.55397C21.7126 7.55389 21.7344 7.5538 21.7571 7.55371C22.142 7.55422 22.142 7.55422 22.2648 7.6236C22.3093 7.63433 22.3538 7.64394 22.3988 7.65275C22.6297 7.70395 22.8232 7.78763 23.0147 7.93542C23.0463 7.9573 23.0779 7.97904 23.1095 8.00086C23.4861 8.27017 23.7795 8.70863 23.896 9.17603C23.9086 9.22633 23.9086 9.22633 23.9295 9.27619C24.0055 9.49097 23.9996 9.73246 23.999 9.95948C23.9989 10.0091 23.9994 10.059 24 10.1086C24.0011 10.3935 23.9648 10.665 23.8884 10.9388C23.8835 10.9573 23.8787 10.9757 23.8736 10.9949C23.7507 11.4489 23.5407 11.8607 23.2931 12.2502C23.2814 12.2687 23.2696 12.2873 23.2576 12.3065C23.2024 12.3926 23.1494 12.4712 23.0772 12.5424C23.0539 12.5705 23.031 12.5987 23.0083 12.6272C22.9378 12.7142 22.8629 12.7957 22.7857 12.8765C22.7748 12.889 22.764 12.9014 22.7528 12.9143C22.7232 12.9433 22.7232 12.9433 22.6816 12.9433C22.6679 12.9726 22.6542 13.002 22.64 13.0323H22.5984C22.5937 13.045 22.589 13.0577 22.5841 13.0708C22.5493 13.1351 22.5073 13.1701 22.4528 13.2159C22.4343 13.2316 22.416 13.2473 22.3968 13.2635C22.3488 13.2994 22.3488 13.2994 22.3072 13.2994C22.3003 13.3214 22.2934 13.3434 22.2864 13.3661C22.2404 13.402 22.2404 13.402 22.1836 13.4371C22.1649 13.4489 22.1463 13.4607 22.1272 13.473C22.0783 13.4999 22.0783 13.4999 22.0367 13.4999C22.0298 13.5219 22.0229 13.544 22.0159 13.5667C21.9728 13.5878 21.9728 13.5878 21.921 13.6043C21.9038 13.6099 21.8867 13.6155 21.869 13.6213C21.8491 13.6273 21.8491 13.6273 21.8288 13.6335V13.678C21.5916 13.818 21.3565 13.9407 21.1006 14.0341C21.0794 14.042 21.0583 14.0498 21.0365 14.0577C20.9759 14.0786 20.9154 14.0958 20.8536 14.112C20.7679 14.1343 20.7679 14.1343 20.6826 14.1581C20.4558 14.2238 20.2269 14.2418 19.9918 14.2402C19.9477 14.24 19.9036 14.2402 19.8595 14.2405C19.6119 14.2408 19.3684 14.2176 19.1292 14.137C19.1141 14.1321 19.0992 14.1271 19.0836 14.122C19.0414 14.1078 18.9995 14.0933 18.9575 14.0786C18.9389 14.0725 18.9205 14.0664 18.9013 14.0601C18.635 13.9611 18.3874 13.753 18.1877 13.5438C18.1737 13.5305 18.1598 13.5173 18.1454 13.5035C18.0522 13.4118 17.981 13.3094 17.9103 13.1963C17.9015 13.1824 17.8928 13.1685 17.8837 13.1541C17.8287 13.0639 17.7878 12.9747 17.7503 12.8758C17.7348 12.8407 17.7348 12.8407 17.7191 12.8048C17.6804 12.7096 17.6608 12.609 17.639 12.5088C17.6305 12.4554 17.6305 12.4554 17.6047 12.4314C17.4973 11.8171 17.5476 11.1293 17.7942 10.5595C17.8152 10.5108 17.8331 10.4612 17.8506 10.4109C17.9032 10.2691 17.9721 10.1371 18.0418 10.0058C18.0528 9.98453 18.0528 9.98453 18.0641 9.96283C18.0865 9.91965 18.109 9.87648 18.1317 9.8333C18.1387 9.81974 18.1457 9.80614 18.1529 9.79234C18.2035 9.69686 18.2035 9.69686 18.2501 9.67193C18.284 9.61518 18.3144 9.55686 18.345 9.49811C18.3548 9.48204 18.3647 9.46605 18.3749 9.44936H18.4165C18.4198 9.4294 18.4198 9.4294 18.423 9.40908C18.4397 9.3521 18.4598 9.33452 18.4998 9.29356C18.5651 9.21611 18.6292 9.13754 18.6896 9.05541C18.8061 8.90184 18.9538 8.74826 19.1098 8.64143C19.166 8.6056 19.166 8.6056 19.2114 8.55374C19.2234 8.54089 19.2353 8.52814 19.2478 8.51479H19.2894V8.47027C19.3304 8.43845 19.3714 8.40973 19.4142 8.38124C19.4314 8.36945 19.4486 8.35765 19.4663 8.34541C19.6427 8.22411 19.8179 8.10503 20.0072 8.0071C20.0412 7.98939 20.0746 7.97105 20.1079 7.95235C20.2528 7.87111 20.4034 7.81347 20.5574 7.7576C20.5788 7.74986 20.6 7.74211 20.6221 7.73423C20.9716 7.61159 21.3233 7.55328 21.6895 7.55462L21.6905 7.55397Z" fill="#1F1D1D"/>
<path d="M2.17391 6.37451C2.18842 6.37459 2.20284 6.37467 2.21782 6.37476C2.43004 6.37616 2.63395 6.38724 2.83993 6.44954C2.86407 6.45638 2.86407 6.45638 2.88862 6.46336C2.93606 6.47859 2.98121 6.49675 3.02719 6.51634C3.04053 6.52197 3.05383 6.52762 3.06756 6.53343C3.11479 6.55351 3.16202 6.57371 3.20925 6.59419C3.22452 6.6008 3.23984 6.60741 3.25544 6.6142C3.33638 6.65003 3.41087 6.68809 3.48432 6.73884C3.50949 6.75544 3.53467 6.772 3.56005 6.78847C3.97618 7.06446 3.97618 7.06446 4.10935 7.20691C4.16386 7.25387 4.21921 7.29927 4.27476 7.3449C4.29577 7.36478 4.29577 7.36478 4.31741 7.38496V7.42948H4.35903V7.47399H4.40064V7.51851H4.44225C4.47076 7.55211 4.49781 7.58728 4.52423 7.62289C4.60725 7.73418 4.69214 7.84301 4.78015 7.95007C4.84028 8.0253 4.8923 8.10275 4.94265 8.186C4.95566 8.20596 4.96866 8.22584 4.98198 8.24653C5.07519 8.39121 5.15176 8.5381 5.22333 8.69613C5.25225 8.75867 5.28367 8.81765 5.31779 8.87708C5.33943 8.92115 5.36003 8.96588 5.38021 9.01062C5.38793 9.02778 5.39565 9.0449 5.40352 9.0627C5.56789 9.43662 5.66568 9.8328 5.74683 10.2356C5.75382 10.2701 5.76143 10.3044 5.7693 10.3387C5.82776 10.6036 5.82548 10.8974 5.81799 11.1689C5.81764 11.1952 5.81729 11.2212 5.81693 11.2481C5.81175 11.4487 5.78426 11.6421 5.74785 11.8379C5.7435 11.8615 5.73915 11.8851 5.73466 11.9094C5.66288 12.2788 5.50787 12.6594 5.29148 12.9599C5.27837 12.9783 5.27837 12.9783 5.26505 12.9969C5.22157 13.055 5.19889 13.0819 5.13168 13.1059C5.12482 13.1206 5.11795 13.1353 5.11088 13.1504C5.10401 13.1651 5.09714 13.1798 5.09007 13.195C5.06947 13.2023 5.04887 13.2096 5.02765 13.2172C5.02078 13.2392 5.01392 13.2613 5.00684 13.284C4.9721 13.2988 4.93756 13.3136 4.90281 13.3285C4.89594 13.3505 4.88908 13.3726 4.882 13.3953C4.43882 13.7514 3.85832 13.8293 3.32151 13.7581C2.95323 13.7011 2.6016 13.55 2.28118 13.3508C2.26595 13.3417 2.2508 13.3327 2.23499 13.3234C2.05896 13.2161 1.9 13.083 1.73979 12.9495C1.72824 12.9399 1.71669 12.9304 1.70483 12.9205C1.59227 12.827 1.49053 12.7331 1.40106 12.6134C1.3634 12.5664 1.3634 12.5664 1.30493 12.5181C1.2396 12.4609 1.18737 12.3959 1.13619 12.3243C1.12187 12.3045 1.12187 12.3045 1.10727 12.2842C0.90898 12.006 0.720264 11.7255 0.574618 11.4139C0.552147 11.3708 0.529676 11.3276 0.506997 11.2846C0.465591 11.2036 0.431468 11.1244 0.40338 11.0376C0.384133 10.9824 0.360518 10.9305 0.33659 10.8773C0.284574 10.7571 0.250659 10.6347 0.218617 10.5079C0.206965 10.4624 0.194065 10.4173 0.1795 10.3728C0.151412 10.2782 0.133726 10.182 0.115416 10.0856C0.108279 10.0478 0.101122 10.0097 0.0937771 9.9719C0.0906562 9.95528 0.0875559 9.93874 0.0843517 9.9216C0.0761955 9.8782 0.0761956 9.8782 0.0541822 9.83525C-0.0230104 9.3033 -0.0305008 8.72907 0.116602 8.21048C0.12299 8.18555 0.129377 8.16062 0.135952 8.13503C0.237697 7.74108 0.398116 7.38051 0.658198 7.07559C0.681502 7.04799 0.681502 7.04799 0.705221 7.01972C0.866473 6.83788 1.05061 6.69477 1.26076 6.58571C1.28069 6.57469 1.30071 6.56368 1.3211 6.55233C1.3419 6.54131 1.36271 6.53029 1.38435 6.51894C1.4047 6.50792 1.42513 6.49691 1.44594 6.48555C1.67689 6.38406 1.92865 6.37405 2.17417 6.37694L2.17391 6.37451Z" fill="#1F1D1D"/>
</svg>
