<svg width="24" height="25" viewBox="0 0 24 25" fill="none" xmlns="http://www.w3.org/2000/svg">
<path fill-rule="evenodd" clip-rule="evenodd" d="M8.25 7.32935C8.25 5.25828 9.92893 3.57935 12 3.57935C14.0711 3.57935 15.75 5.25828 15.75 7.32935C15.75 9.40041 14.0711 11.0793 12 11.0793C9.92893 11.0793 8.25 9.40041 8.25 7.32935Z" fill="#0F172A"/>
<path fill-rule="evenodd" clip-rule="evenodd" d="M15.75 10.3293C15.75 8.67249 17.0931 7.32935 18.75 7.32935C20.4069 7.32935 21.75 8.67249 21.75 10.3293C21.75 11.9862 20.4069 13.3293 18.75 13.3293C17.0931 13.3293 15.75 11.9862 15.75 10.3293Z" fill="#0F172A"/>
<path fill-rule="evenodd" clip-rule="evenodd" d="M2.25 10.3293C2.25 8.67249 3.59315 7.32935 5.25 7.32935C6.90685 7.32935 8.25 8.67249 8.25 10.3293C8.25 11.9862 6.90685 13.3293 5.25 13.3293C3.59315 13.3293 2.25 11.9862 2.25 10.3293Z" fill="#0F172A"/>
<path fill-rule="evenodd" clip-rule="evenodd" d="M6.30986 15.6969C7.50783 13.8238 9.60835 12.5793 12 12.5793C14.3919 12.5793 16.4927 13.8241 17.6906 15.6976C18.5187 16.9928 18.877 18.5545 18.709 20.0773C18.6827 20.3152 18.5444 20.5264 18.3368 20.6455C16.4694 21.717 14.3051 22.3293 12 22.3293C9.69492 22.3293 7.53059 21.717 5.66325 20.6455C5.45559 20.5264 5.3173 20.3152 5.29103 20.0773C5.12293 18.5543 5.48141 16.9922 6.30986 15.6969Z" fill="#0F172A"/>
<path d="M5.08228 14.833C5.07024 14.8515 5.05827 14.8701 5.04638 14.8887C4.08091 16.3982 3.63908 18.196 3.77471 19.9684C3.16667 19.876 2.5767 19.7274 2.01043 19.528L1.89547 19.4875C1.68576 19.4137 1.53923 19.2232 1.52159 19.0016L1.51192 18.8801C1.50402 18.7807 1.5 18.6804 1.5 18.5793C1.5 16.5645 3.08905 14.9208 5.08228 14.833Z" fill="#0F172A"/>
<path d="M20.2256 19.9683C20.3612 18.1963 19.9196 16.3989 18.9545 14.8895C18.9424 14.8706 18.9303 14.8518 18.9181 14.833C20.9111 14.921 22.5 16.5646 22.5 18.5793C22.5 18.6804 22.496 18.7807 22.4881 18.8801L22.4784 19.0016C22.4608 19.2232 22.3142 19.4137 22.1045 19.4875L21.9896 19.528C21.4234 19.7274 20.8336 19.8759 20.2256 19.9683Z" fill="#0F172A"/>
</svg>
