<svg width="25" height="25" viewBox="0 0 25 25" fill="none" xmlns="http://www.w3.org/2000/svg">
<path d="M15.7605 17.5978C17.6563 17.3837 19.4857 16.9486 21.2221 16.3186C19.7943 14.7157 18.9316 12.5994 18.9446 10.2838L18.9485 9.58305C18.9488 9.56667 18.9489 9.55027 18.949 9.53386C18.9676 6.22021 16.2964 3.51888 12.9828 3.50027C9.66912 3.48167 6.96779 6.15284 6.94919 9.4665L6.94478 10.2165C6.93178 12.5321 6.04541 14.6385 4.59969 16.2253C6.32899 16.8747 8.1535 17.3304 10.0469 17.5658M15.7605 17.5978C14.8231 17.7037 13.8693 17.7555 12.9026 17.75C11.936 17.7446 10.983 17.6821 10.0469 17.5658M15.7605 17.5978C15.8519 17.8877 15.9003 18.1966 15.8985 18.5169C15.8892 20.1737 14.5386 21.5093 12.8817 21.5C11.2249 21.4907 9.88932 20.14 9.89862 18.4832C9.90042 18.1629 9.95234 17.8546 10.0469 17.5658" stroke="#0F172A" stroke-width="1.5" stroke-linecap="round" stroke-linejoin="round"/>
</svg>
