<svg width="25" height="25" viewBox="0 0 25 25" fill="none" xmlns="http://www.w3.org/2000/svg">
<path fill-rule="evenodd" clip-rule="evenodd" d="M21.1157 11C21.1157 7.27208 18.0936 4.25 14.3657 4.25C10.6378 4.25 7.61572 7.27208 7.61572 11C7.61572 12.8642 8.37042 14.5506 9.59275 15.773C10.8151 16.9953 12.5016 17.75 14.3657 17.75C18.0936 17.75 21.1157 14.7279 21.1157 11ZM14.3657 2.75C18.9221 2.75 22.6157 6.44365 22.6157 11C22.6157 15.5563 18.9221 19.25 14.3657 19.25C12.3579 19.25 10.5167 18.532 9.08645 17.3399L4.39605 22.0303C4.10316 22.3232 3.62829 22.3232 3.33539 22.0303C3.0425 21.7374 3.0425 21.2626 3.33539 20.9697L8.02579 16.2793C6.83375 14.8491 6.11572 13.0078 6.11572 11C6.11572 6.44365 9.80937 2.75 14.3657 2.75Z" fill="#0F172A"/>
</svg>
